<svg xmlns="http://www.w3.org/2000/svg" xmlns:xlink="http://www.w3.org/1999/xlink">
  <defs>
    <symbol id="phone" viewBox="0 0 473.806 473.806">
      <svg fill="currentColor">
        <g>
          <g>
            <path d="M374.456,293.506c-9.7-10.1-21.4-15.5-33.8-15.5c-12.3,0-24.1,5.3-34.2,15.4l-31.6,31.5c-2.6-1.4-5.2-2.7-7.7-4
              c-3.6-1.8-7-3.5-9.9-5.3c-29.6-18.8-56.5-43.3-82.3-75c-12.5-15.8-20.9-29.1-27-42.6c8.2-7.5,15.8-15.3,23.2-22.8
              c2.8-2.8,5.6-5.7,8.4-8.5c21-21,21-48.2,0-69.2l-27.3-27.3c-3.1-3.1-6.3-6.3-9.3-9.5c-6-6.2-12.3-12.6-18.8-18.6
              c-9.7-9.6-21.3-14.7-33.5-14.7s-24,5.1-34,14.7c-0.1,0.1-0.1,0.1-0.2,0.2l-34,34.3c-12.8,12.8-20.1,28.4-21.7,46.5
              c-2.4,29.2,6.2,56.4,12.8,74.2c16.2,43.7,40.4,84.2,76.5,127.6c43.8,52.3,96.5,93.6,156.7,122.7c23,10.9,53.7,23.8,88,26
              c2.1,0.1,4.3,0.2,6.3,0.2c23.1,0,42.5-8.3,57.7-24.8c0.1-0.2,0.3-0.3,0.4-0.5c5.2-6.3,11.2-12,17.5-18.1c4.3-4.1,8.7-8.4,13-12.9
              c9.9-10.3,15.1-22.3,15.1-34.6c0-12.4-5.3-24.3-15.4-34.3L374.456,293.506z M410.256,398.806
              C410.156,398.806,410.156,398.906,410.256,398.806c-3.9,4.2-7.9,8-12.2,12.2c-6.5,6.2-13.1,12.7-19.3,20
              c-10.1,10.8-22,15.9-37.6,15.9c-1.5,0-3.1,0-4.6-0.1c-29.7-1.9-57.3-13.5-78-23.4c-56.6-27.4-106.3-66.3-147.6-115.6
              c-34.1-41.1-56.9-79.1-72-119.9c-9.3-24.9-12.7-44.3-11.2-62.6c1-11.7,5.5-21.4,13.8-29.7l34.1-34.1c4.9-4.6,10.1-7.1,15.2-7.1
              c6.3,0,11.4,3.8,14.6,7c0.1,0.1,0.2,0.2,0.3,0.3c6.1,5.7,11.9,11.6,18,17.9c3.1,3.2,6.3,6.4,9.5,9.7l27.3,27.3
              c10.6,10.6,10.6,20.4,0,31c-2.9,2.9-5.7,5.8-8.6,8.6c-8.4,8.6-16.4,16.6-25.1,24.4c-0.2,0.2-0.4,0.3-0.5,0.5
              c-8.6,8.6-7,17-5.2,22.7c0.1,0.3,0.2,0.6,0.3,0.9c7.1,17.2,17.1,33.4,32.3,52.7l0.1,0.1c27.6,34,56.7,60.5,88.8,80.8
              c4.1,2.6,8.3,4.7,12.3,6.7c3.6,1.8,7,3.5,9.9,5.3c0.4,0.2,0.8,0.5,1.2,0.7c3.4,1.7,6.6,2.5,9.9,2.5c8.3,0,13.5-5.2,15.2-6.9
              l34.2-34.2c3.4-3.4,8.8-7.5,15.1-7.5c6.2,0,11.3,3.9,14.4,7.3c0.1,0.1,0.1,0.1,0.2,0.2l55.1,55.1
              C420.456,377.706,420.456,388.206,410.256,398.806z"/>
            <path d="M256.056,112.706c26.2,4.4,50,16.8,69,35.8s31.3,42.8,35.8,69c1.1,6.6,6.8,11.2,13.3,11.2c0.8,0,1.5-0.1,2.3-0.2
              c7.4-1.2,12.3-8.2,11.1-15.6c-5.4-31.7-20.4-60.6-43.3-83.5s-51.8-37.9-83.5-43.3c-7.4-1.2-14.3,3.7-15.6,11
              S248.656,111.506,256.056,112.706z"/>
            <path d="M473.256,209.006c-8.9-52.2-33.5-99.7-71.3-137.5s-85.3-62.4-137.5-71.3c-7.3-1.3-14.2,3.7-15.5,11
              c-1.2,7.4,3.7,14.3,11.1,15.6c46.6,7.9,89.1,30,122.9,63.7c33.8,33.8,55.8,76.3,63.7,122.9c1.1,6.6,6.8,11.2,13.3,11.2
              c0.8,0,1.5-0.1,2.3-0.2C469.556,223.306,474.556,216.306,473.256,209.006z"/>
          </g>
        </g>
      </svg>
    </symbol>
    <symbol id="email" viewBox="0 0 64 64">
      <svg fill="currentColor">
        <path d="M58.0034485,8H5.9965506c-3.3136795,0-5.9999995,2.6862001-5.9999995,6v36c0,3.3137016,2.6863203,6,5.9999995,6
          h52.006897c3.3137016,0,6-2.6862984,6-6V14C64.0034485,10.6862001,61.3171501,8,58.0034485,8z M62.0034485,49.1108017
          L43.084549,30.1919994l18.9188995-12.0555992V49.1108017z M5.9965506,10h52.006897c2.2056007,0,4,1.7943001,4,4v1.7664003
          L34.4677505,33.3134003c-1.4902,0.9492989-3.3935013,0.9199982-4.8495998-0.0703011L1.9965508,14.4694996V14
          C1.9965508,11.7943001,3.7910507,10,5.9965506,10z M1.9965508,16.8852005L21.182251,29.9251003L1.9965508,49.1108017V16.8852005z
          M58.0034485,54H5.9965506c-1.6473999,0-3.0638998-1.0021019-3.6760998-2.4278984l20.5199013-20.5200024l5.6547985,3.843401
          c1.0859013,0.7383003,2.3418007,1.1083984,3.5995998,1.1083984c1.1953011,0,2.3925018-0.3339996,3.4463005-1.0048981
          l5.8423996-3.7230015l20.2961006,20.2961025C61.0673485,52.9978981,59.6508713,54,58.0034485,54z"/>
      </svg>
    </symbol>
    <symbol id="menu" viewBox="0,0,256,256">
      <svg fill-rule="nonzero">
        <g fill="currentColor" fill-rule="nonzero" stroke="none" stroke-width="1" stroke-linecap="butt" stroke-linejoin="miter" stroke-miterlimit="10" stroke-dasharray="" stroke-dashoffset="0" font-family="none" font-weight="none" font-size="none" text-anchor="none" style="mix-blend-mode: normal">
          <g transform="scale(8.53333,8.53333)">
            <path d="M3,7c-0.36064,-0.0051 -0.69608,0.18438 -0.87789,0.49587c-0.18181,0.3115 -0.18181,0.69676 0,1.00825c0.18181,0.3115 0.51725,0.50097 0.87789,0.49587h24c0.36064,0.0051 0.69608,-0.18438 0.87789,-0.49587c0.18181,-0.3115 0.18181,-0.69676 0,-1.00825c-0.18181,-0.3115 -0.51725,-0.50097 -0.87789,-0.49587zM3,14c-0.36064,-0.0051 -0.69608,0.18438 -0.87789,0.49587c-0.18181,0.3115 -0.18181,0.69676 0,1.00825c0.18181,0.3115 0.51725,0.50097 0.87789,0.49587h24c0.36064,0.0051 0.69608,-0.18438 0.87789,-0.49587c0.18181,-0.3115 0.18181,-0.69676 0,-1.00825c-0.18181,-0.3115 -0.51725,-0.50097 -0.87789,-0.49587zM3,21c-0.36064,-0.0051 -0.69608,0.18438 -0.87789,0.49587c-0.18181,0.3115 -0.18181,0.69676 0,1.00825c0.18181,0.3115 0.51725,0.50097 0.87789,0.49587h24c0.36064,0.0051 0.69608,-0.18438 0.87789,-0.49587c0.18181,-0.3115 0.18181,-0.69676 0,-1.00825c-0.18181,-0.3115 -0.51725,-0.50097 -0.87789,-0.49587z"></path>
          </g>
        </g>
      </svg>
    </symbol>
    <symbol id="geopin" viewBox="0 0 16 23">
      <svg fill="currentColor"><path fill-rule="evenodd" clip-rule="evenodd" d="M8 22.5C8 22.5 0 13.2414 0 8.70819C0 4.17493 3.58172 0.5 8 0.5C12.4183 0.5 16 4.17493 16 8.70819C16 13.2414 8 22.5 8 22.5ZM8 13.5C5.23858 13.5 3 11.2614 3 8.5C3 5.73858 5.23858 3.5 8 3.5C10.7614 3.5 13 5.73858 13 8.5C13 11.2614 10.7614 13.5 8 13.5Z"/></svg>
    </symbol>
    <symbol id="profile" viewBox="0 0 34 33">
      <svg fill="currentColor"><path d="M25.6898 12.1217C25.9798 7.35963 25.9798 0 17.279 0C8.57827 0 8.43326 7.35963 8.8683 12.1217C8.14323 10.9673 6.40308 11.2559 6.54809 13.1319C6.54809 13.8534 7.27315 14.575 7.85321 15.0079C7.85321 15.0079 7.56318 15.5851 7.99822 16.018C8.43326 16.4509 9.01331 16.018 9.15832 15.7294V15.5851C9.73837 18.6155 12.2036 20.6358 14.8138 21.3574V21.646C14.8138 21.7903 14.8138 21.9346 14.8138 22.0789C14.6688 22.9447 14.2338 23.6663 13.7987 23.6663V23.522L12.3486 24.0992C12.3486 24.2435 12.2036 24.2435 12.2036 24.2435C10.7535 25.1093 8.57827 27.2739 8.57827 32.469C8.57827 32.469 8.57827 32.469 8.72328 32.6133H10.3184H23.5146H25.3998C25.5448 32.6133 25.5448 32.469 25.5448 32.469C25.5448 27.2739 23.3696 25.1093 21.9195 24.2435C21.9195 24.0992 21.9195 24.0992 21.9195 24.0992L20.4693 23.6663C20.4693 23.6663 20.4693 23.6663 20.4693 23.8106C20.0343 23.8106 19.5993 23.089 19.4542 22.0789C19.4542 21.9346 19.4542 21.7903 19.4542 21.7903V21.3574C22.0645 20.6358 24.6747 18.6155 25.2548 15.4408V15.5851C25.3998 16.018 25.9798 16.3066 26.4149 15.8737C26.8499 15.5851 26.5599 15.0079 26.5599 15.0079C27.1399 14.575 27.72 13.9977 27.865 13.1319C28.01 11.2559 26.2698 10.9673 25.6898 12.1217Z" /></svg>
    </symbol>
    <symbol id="vk" viewBox="0 0 48 48">
      <svg fill="currentColor"><path d="M45.763,35.202c-1.797-3.234-6.426-7.12-8.337-8.811c-0.523-0.463-0.579-1.264-0.103-1.776 c3.647-3.919,6.564-8.422,7.568-11.143C45.334,12.27,44.417,11,43.125,11l-3.753,0c-1.237,0-1.961,0.444-2.306,1.151 c-3.031,6.211-5.631,8.899-7.451,10.47c-1.019,0.88-2.608,0.151-2.608-1.188c0-2.58,0-5.915,0-8.28 c0-1.147-0.938-2.075-2.095-2.075L18.056,11c-0.863,0-1.356,0.977-0.838,1.662l1.132,1.625c0.426,0.563,0.656,1.248,0.656,1.951 L19,23.556c0,1.273-1.543,1.895-2.459,1.003c-3.099-3.018-5.788-9.181-6.756-12.128C9.505,11.578,8.706,11.002,7.8,11l-3.697-0.009 c-1.387,0-2.401,1.315-2.024,2.639c3.378,11.857,10.309,23.137,22.661,24.36c1.217,0.12,2.267-0.86,2.267-2.073l0-3.846 c0-1.103,0.865-2.051,1.977-2.079c0.039-0.001,0.078-0.001,0.117-0.001c3.267,0,6.926,4.755,8.206,6.979 c0.368,0.64,1.056,1.03,1.8,1.03l4.973,0C45.531,38,46.462,36.461,45.763,35.202z"/></svg>    </symbol>
    <symbol id="tg" viewBox="0 0 30 30">
      <svg fill="currentColor"><path d="M 25.154297 3.984375 C 24.829241 3.998716 24.526384 4.0933979 24.259766 4.2011719 C 24.010014 4.3016357 23.055766 4.7109106 21.552734 5.3554688 C 20.048394 6.0005882 18.056479 6.855779 15.931641 7.7695312 C 11.681964 9.5970359 6.9042108 11.654169 4.4570312 12.707031 C 4.3650097 12.746607 4.0439208 12.849183 3.703125 13.115234 C 3.3623292 13.381286 3 13.932585 3 14.546875 C 3 15.042215 3.2360676 15.534319 3.5332031 15.828125 C 3.8303386 16.121931 4.144747 16.267067 4.4140625 16.376953 C 5.3912284 16.775666 8.4218473 18.015862 8.9941406 18.25 C 9.195546 18.866983 10.29249 22.222526 10.546875 23.044922 C 10.714568 23.587626 10.874198 23.927519 11.082031 24.197266 C 11.185948 24.332139 11.306743 24.45034 11.453125 24.542969 C 11.511635 24.579989 11.575789 24.608506 11.640625 24.634766 L 11.644531 24.636719 C 11.659471 24.642719 11.67235 24.652903 11.6875 24.658203 C 11.716082 24.668202 11.735202 24.669403 11.773438 24.677734 C 11.925762 24.726927 12.079549 24.757812 12.216797 24.757812 C 12.80196 24.757814 13.160156 24.435547 13.160156 24.435547 L 13.181641 24.419922 L 16.191406 21.816406 L 19.841797 25.269531 C 19.893193 25.342209 20.372542 26 21.429688 26 C 22.057386 26 22.555319 25.685026 22.875 25.349609 C 23.194681 25.014192 23.393848 24.661807 23.478516 24.21875 L 23.478516 24.216797 C 23.557706 23.798129 26.921875 6.5273437 26.921875 6.5273438 L 26.916016 6.5507812 C 27.014496 6.1012683 27.040303 5.6826405 26.931641 5.2695312 C 26.822973 4.8564222 26.536648 4.4608905 26.181641 4.2480469 C 25.826669 4.0352506 25.479353 3.9700339 25.154297 3.984375 z M 24.966797 6.0742188 C 24.961997 6.1034038 24.970391 6.0887279 24.962891 6.1230469 L 24.960938 6.1347656 L 24.958984 6.1464844 C 24.958984 6.1464844 21.636486 23.196371 21.513672 23.845703 C 21.522658 23.796665 21.481573 23.894167 21.439453 23.953125 C 21.379901 23.91208 21.257812 23.859375 21.257812 23.859375 L 21.238281 23.837891 L 16.251953 19.121094 L 12.726562 22.167969 L 13.775391 17.96875 C 13.775391 17.96875 20.331562 11.182109 20.726562 10.787109 C 21.044563 10.471109 21.111328 10.360953 21.111328 10.251953 C 21.111328 10.105953 21.035234 10 20.865234 10 C 20.712234 10 20.506484 10.14875 20.396484 10.21875 C 18.963383 11.132295 12.671823 14.799141 9.8515625 16.439453 C 9.4033769 16.256034 6.2896636 14.981472 5.234375 14.550781 C 5.242365 14.547281 5.2397349 14.548522 5.2480469 14.544922 C 7.6958673 13.491784 12.47163 11.434667 16.720703 9.6074219 C 18.84524 8.6937992 20.838669 7.8379587 22.341797 7.1933594 C 23.821781 6.5586849 24.850125 6.1218894 24.966797 6.0742188 z"/></svg>    </symbol>
    <symbol id="inst" viewBox="0 0 24 24">
      <svg fill="currentColor"><path d="M 8 3 C 5.243 3 3 5.243 3 8 L 3 16 C 3 18.757 5.243 21 8 21 L 16 21 C 18.757 21 21 18.757 21 16 L 21 8 C 21 5.243 18.757 3 16 3 L 8 3 z M 8 5 L 16 5 C 17.654 5 19 6.346 19 8 L 19 16 C 19 17.654 17.654 19 16 19 L 8 19 C 6.346 19 5 17.654 5 16 L 5 8 C 5 6.346 6.346 5 8 5 z M 17 6 A 1 1 0 0 0 16 7 A 1 1 0 0 0 17 8 A 1 1 0 0 0 18 7 A 1 1 0 0 0 17 6 z M 12 7 C 9.243 7 7 9.243 7 12 C 7 14.757 9.243 17 12 17 C 14.757 17 17 14.757 17 12 C 17 9.243 14.757 7 12 7 z M 12 9 C 13.654 9 15 10.346 15 12 C 15 13.654 13.654 15 12 15 C 10.346 15 9 13.654 9 12 C 9 10.346 10.346 9 12 9 z"/></svg>    </symbol>
    <symbol id="viber" viewBox="0 0 30 31">
      <svg fill="currentColor" viewBox="0 0 24 24"><path d="M 9.546875 0.98046875 C 5.385875 0.98046875 2 4.3643906 2 8.5253906 L 2 12.023438 C 2 14.249437 2.326 17.286234 5 18.740234 L 5 21.222656 L 7.0664062 22.255859 L 10.552734 19.976562 L 14.328125 19.945312 C 18.415125 19.945313 22 16.243437 22 12.023438 L 22 8.5253906 C 22 4.3643906 18.614125 0.98046875 14.453125 0.98046875 L 9.546875 0.98046875 z M 9.546875 2.9804688 L 14.453125 2.9804688 C 17.511125 2.9804688 20 5.4673906 20 8.5253906 L 20 12.021484 C 20 15.175484 17.350313 17.943359 14.320312 17.943359 L 9.9472656 17.982422 L 7 19.910156 L 7 17.427734 L 6.3691406 17.175781 C 4.7081406 16.513781 4 14.973437 4 12.023438 L 4 8.5253906 C 4 5.4673906 6.488875 2.9804688 9.546875 2.9804688 z M 13 3.9804688 L 13 4.9804688 C 15.947 4.9804688 18 7.6154687 18 9.9804688 L 19 9.9804688 C 19 7.1424687 16.536 3.9804687 13 3.9804688 z M 8.0019531 4.9902344 C 7.7637031 4.9543594 7.5116875 5.0109219 7.3046875 5.1699219 L 6.7167969 5.6230469 C 6.0227969 6.1560469 5.8013594 7.0969531 6.1933594 7.8769531 C 6.9313594 9.3439531 8.1679375 11.604406 9.2109375 12.566406 C 10.492938 13.750406 12.507172 15.15375 14.201172 15.84375 C 14.942172 16.14575 15.790547 15.933172 16.310547 15.326172 C 16.495547 15.110172 16.668359 14.890406 16.818359 14.691406 C 17.125359 14.283406 17.036094 13.70525 16.621094 13.40625 L 14.75 12.060547 C 14.348 11.771547 13.786375 11.851188 13.484375 12.242188 L 13.169922 12.589844 C 12.961922 12.819844 12.64875 12.940906 12.34375 12.878906 C 11.86775 12.782906 11.113187 12.472063 10.242188 11.539062 C 9.5231875 10.771063 9.1196562 9.9537656 8.9726562 9.3847656 C 8.8846563 9.0447656 9.0063438 8.6898438 9.2773438 8.4648438 L 9.5917969 8.203125 C 9.9587969 7.899125 10.030859 7.3665156 9.7558594 6.9785156 L 8.6152344 5.3671875 C 8.4652344 5.1546875 8.2402031 5.0261094 8.0019531 4.9902344 z M 13 5.9804688 L 13 6.9804688 C 14.514 6.9804688 16 8.4664688 16 9.9804688 L 17 9.9804688 C 17 7.9244688 15.056 5.9804688 13 5.9804688 z M 13 7.9804688 L 13 8.9804688 C 13.645 8.9804688 14 9.3354688 14 9.9804688 L 15 9.9804688 C 15 8.7834688 14.196 7.9804688 13 7.9804688 z"/></svg>
    </symbol>
    <symbol id="slider-arrow" viewBox="0 0 492.004 492.004">
      <svg fill="currentColor"><g><g><path d="M382.678,226.804L163.73,7.86C158.666,2.792,151.906,0,144.698,0s-13.968,2.792-19.032,7.86l-16.124,16.12 c-10.492,10.504-10.492,27.576,0,38.064L293.398,245.9l-184.06,184.06c-5.064,5.068-7.86,11.824-7.86,19.028 c0,7.212,2.796,13.968,7.86,19.04l16.124,16.116c5.068,5.068,11.824,7.86,19.032,7.86s13.968-2.792,19.032-7.86L382.678,265 c5.076-5.084,7.864-11.872,7.848-19.088C390.542,238.668,387.754,231.884,382.678,226.804z"/></g></g><g/><g/><g/><g/><g/><g/><g/><g/><g/><g/><g/><g/><g/><g/><g/></svg>
    </symbol>
  </defs>
</svg>
