<svg xmlns="http://www.w3.org/2000/svg" xmlns:xlink="http://www.w3.org/1999/xlink">
  <defs>
    <symbol id="phone" viewBox="0 0 473.806 473.806">
      <svg fill="currentColor">
        <g>
          <g>
            <path
              d="M374.456,293.506c-9.7-10.1-21.4-15.5-33.8-15.5c-12.3,0-24.1,5.3-34.2,15.4l-31.6,31.5c-2.6-1.4-5.2-2.7-7.7-4
              c-3.6-1.8-7-3.5-9.9-5.3c-29.6-18.8-56.5-43.3-82.3-75c-12.5-15.8-20.9-29.1-27-42.6c8.2-7.5,15.8-15.3,23.2-22.8
              c2.8-2.8,5.6-5.7,8.4-8.5c21-21,21-48.2,0-69.2l-27.3-27.3c-3.1-3.1-6.3-6.3-9.3-9.5c-6-6.2-12.3-12.6-18.8-18.6
              c-9.7-9.6-21.3-14.7-33.5-14.7s-24,5.1-34,14.7c-0.1,0.1-0.1,0.1-0.2,0.2l-34,34.3c-12.8,12.8-20.1,28.4-21.7,46.5
              c-2.4,29.2,6.2,56.4,12.8,74.2c16.2,43.7,40.4,84.2,76.5,127.6c43.8,52.3,96.5,93.6,156.7,122.7c23,10.9,53.7,23.8,88,26
              c2.1,0.1,4.3,0.2,6.3,0.2c23.1,0,42.5-8.3,57.7-24.8c0.1-0.2,0.3-0.3,0.4-0.5c5.2-6.3,11.2-12,17.5-18.1c4.3-4.1,8.7-8.4,13-12.9
              c9.9-10.3,15.1-22.3,15.1-34.6c0-12.4-5.3-24.3-15.4-34.3L374.456,293.506z M410.256,398.806
              C410.156,398.806,410.156,398.906,410.256,398.806c-3.9,4.2-7.9,8-12.2,12.2c-6.5,6.2-13.1,12.7-19.3,20
              c-10.1,10.8-22,15.9-37.6,15.9c-1.5,0-3.1,0-4.6-0.1c-29.7-1.9-57.3-13.5-78-23.4c-56.6-27.4-106.3-66.3-147.6-115.6
              c-34.1-41.1-56.9-79.1-72-119.9c-9.3-24.9-12.7-44.3-11.2-62.6c1-11.7,5.5-21.4,13.8-29.7l34.1-34.1c4.9-4.6,10.1-7.1,15.2-7.1
              c6.3,0,11.4,3.8,14.6,7c0.1,0.1,0.2,0.2,0.3,0.3c6.1,5.7,11.9,11.6,18,17.9c3.1,3.2,6.3,6.4,9.5,9.7l27.3,27.3
              c10.6,10.6,10.6,20.4,0,31c-2.9,2.9-5.7,5.8-8.6,8.6c-8.4,8.6-16.4,16.6-25.1,24.4c-0.2,0.2-0.4,0.3-0.5,0.5
              c-8.6,8.6-7,17-5.2,22.7c0.1,0.3,0.2,0.6,0.3,0.9c7.1,17.2,17.1,33.4,32.3,52.7l0.1,0.1c27.6,34,56.7,60.5,88.8,80.8
              c4.1,2.6,8.3,4.7,12.3,6.7c3.6,1.8,7,3.5,9.9,5.3c0.4,0.2,0.8,0.5,1.2,0.7c3.4,1.7,6.6,2.5,9.9,2.5c8.3,0,13.5-5.2,15.2-6.9
              l34.2-34.2c3.4-3.4,8.8-7.5,15.1-7.5c6.2,0,11.3,3.9,14.4,7.3c0.1,0.1,0.1,0.1,0.2,0.2l55.1,55.1
              C420.456,377.706,420.456,388.206,410.256,398.806z" />
            <path
              d="M256.056,112.706c26.2,4.4,50,16.8,69,35.8s31.3,42.8,35.8,69c1.1,6.6,6.8,11.2,13.3,11.2c0.8,0,1.5-0.1,2.3-0.2
              c7.4-1.2,12.3-8.2,11.1-15.6c-5.4-31.7-20.4-60.6-43.3-83.5s-51.8-37.9-83.5-43.3c-7.4-1.2-14.3,3.7-15.6,11
              S248.656,111.506,256.056,112.706z" />
            <path
              d="M473.256,209.006c-8.9-52.2-33.5-99.7-71.3-137.5s-85.3-62.4-137.5-71.3c-7.3-1.3-14.2,3.7-15.5,11
              c-1.2,7.4,3.7,14.3,11.1,15.6c46.6,7.9,89.1,30,122.9,63.7c33.8,33.8,55.8,76.3,63.7,122.9c1.1,6.6,6.8,11.2,13.3,11.2
              c0.8,0,1.5-0.1,2.3-0.2C469.556,223.306,474.556,216.306,473.256,209.006z" />
          </g>
        </g>
      </svg>
    </symbol>
    <symbol id="email" viewBox="0 0 64 64">
      <svg fill="currentColor">
        <path
          d="M58.0034485,8H5.9965506c-3.3136795,0-5.9999995,2.6862001-5.9999995,6v36c0,3.3137016,2.6863203,6,5.9999995,6
          h52.006897c3.3137016,0,6-2.6862984,6-6V14C64.0034485,10.6862001,61.3171501,8,58.0034485,8z M62.0034485,49.1108017
          L43.084549,30.1919994l18.9188995-12.0555992V49.1108017z M5.9965506,10h52.006897c2.2056007,0,4,1.7943001,4,4v1.7664003
          L34.4677505,33.3134003c-1.4902,0.9492989-3.3935013,0.9199982-4.8495998-0.0703011L1.9965508,14.4694996V14
          C1.9965508,11.7943001,3.7910507,10,5.9965506,10z M1.9965508,16.8852005L21.182251,29.9251003L1.9965508,49.1108017V16.8852005z
          M58.0034485,54H5.9965506c-1.6473999,0-3.0638998-1.0021019-3.6760998-2.4278984l20.5199013-20.5200024l5.6547985,3.843401
          c1.0859013,0.7383003,2.3418007,1.1083984,3.5995998,1.1083984c1.1953011,0,2.3925018-0.3339996,3.4463005-1.0048981
          l5.8423996-3.7230015l20.2961006,20.2961025C61.0673485,52.9978981,59.6508713,54,58.0034485,54z" />
      </svg>
    </symbol>
    <symbol id="youtube" viewBox="0 0 461.001 461.001">
      <svg>
        <g>
          <path fill="currentColor"
            d="M365.257,67.393H95.744C42.866,67.393,0,110.259,0,163.137v134.728
            c0,52.878,42.866,95.744,95.744,95.744h269.513c52.878,0,95.744-42.866,95.744-95.744V163.137
            C461.001,110.259,418.135,67.393,365.257,67.393z M300.506,237.056l-126.06,60.123c-3.359,1.602-7.239-0.847-7.239-4.568V168.607
            c0-3.774,3.982-6.22,7.348-4.514l126.06,63.881C304.363,229.873,304.298,235.248,300.506,237.056z" />
        </g>
      </svg>
    </symbol>
    <symbol id="menu" viewBox="0,0,256,256">
      <svg fill-rule="nonzero">
        <g fill="currentColor" fill-rule="nonzero" stroke="none" stroke-width="1"
          stroke-linecap="butt" stroke-linejoin="miter" stroke-miterlimit="10" stroke-dasharray=""
          stroke-dashoffset="0" font-family="none" font-weight="none" font-size="none"
          text-anchor="none" style="mix-blend-mode: normal">
          <g transform="scale(8.53333,8.53333)">
            <path
              d="M3,7c-0.36064,-0.0051 -0.69608,0.18438 -0.87789,0.49587c-0.18181,0.3115 -0.18181,0.69676 0,1.00825c0.18181,0.3115 0.51725,0.50097 0.87789,0.49587h24c0.36064,0.0051 0.69608,-0.18438 0.87789,-0.49587c0.18181,-0.3115 0.18181,-0.69676 0,-1.00825c-0.18181,-0.3115 -0.51725,-0.50097 -0.87789,-0.49587zM3,14c-0.36064,-0.0051 -0.69608,0.18438 -0.87789,0.49587c-0.18181,0.3115 -0.18181,0.69676 0,1.00825c0.18181,0.3115 0.51725,0.50097 0.87789,0.49587h24c0.36064,0.0051 0.69608,-0.18438 0.87789,-0.49587c0.18181,-0.3115 0.18181,-0.69676 0,-1.00825c-0.18181,-0.3115 -0.51725,-0.50097 -0.87789,-0.49587zM3,21c-0.36064,-0.0051 -0.69608,0.18438 -0.87789,0.49587c-0.18181,0.3115 -0.18181,0.69676 0,1.00825c0.18181,0.3115 0.51725,0.50097 0.87789,0.49587h24c0.36064,0.0051 0.69608,-0.18438 0.87789,-0.49587c0.18181,-0.3115 0.18181,-0.69676 0,-1.00825c-0.18181,-0.3115 -0.51725,-0.50097 -0.87789,-0.49587z"></path>
          </g>
        </g>
      </svg>
    </symbol>
    <symbol id="geopin" viewBox="0 0 16 23">
      <svg fill="currentColor">
        <path fill-rule="evenodd" clip-rule="evenodd"
          d="M8 22.5C8 22.5 0 13.2414 0 8.70819C0 4.17493 3.58172 0.5 8 0.5C12.4183 0.5 16 4.17493 16 8.70819C16 13.2414 8 22.5 8 22.5ZM8 13.5C5.23858 13.5 3 11.2614 3 8.5C3 5.73858 5.23858 3.5 8 3.5C10.7614 3.5 13 5.73858 13 8.5C13 11.2614 10.7614 13.5 8 13.5Z" />
      </svg>
    </symbol>
    <symbol id="profile" viewBox="0 0 34 33">
      <svg fill="currentColor">
        <path
          d="M25.6898 12.1217C25.9798 7.35963 25.9798 0 17.279 0C8.57827 0 8.43326 7.35963 8.8683 12.1217C8.14323 10.9673 6.40308 11.2559 6.54809 13.1319C6.54809 13.8534 7.27315 14.575 7.85321 15.0079C7.85321 15.0079 7.56318 15.5851 7.99822 16.018C8.43326 16.4509 9.01331 16.018 9.15832 15.7294V15.5851C9.73837 18.6155 12.2036 20.6358 14.8138 21.3574V21.646C14.8138 21.7903 14.8138 21.9346 14.8138 22.0789C14.6688 22.9447 14.2338 23.6663 13.7987 23.6663V23.522L12.3486 24.0992C12.3486 24.2435 12.2036 24.2435 12.2036 24.2435C10.7535 25.1093 8.57827 27.2739 8.57827 32.469C8.57827 32.469 8.57827 32.469 8.72328 32.6133H10.3184H23.5146H25.3998C25.5448 32.6133 25.5448 32.469 25.5448 32.469C25.5448 27.2739 23.3696 25.1093 21.9195 24.2435C21.9195 24.0992 21.9195 24.0992 21.9195 24.0992L20.4693 23.6663C20.4693 23.6663 20.4693 23.6663 20.4693 23.8106C20.0343 23.8106 19.5993 23.089 19.4542 22.0789C19.4542 21.9346 19.4542 21.7903 19.4542 21.7903V21.3574C22.0645 20.6358 24.6747 18.6155 25.2548 15.4408V15.5851C25.3998 16.018 25.9798 16.3066 26.4149 15.8737C26.8499 15.5851 26.5599 15.0079 26.5599 15.0079C27.1399 14.575 27.72 13.9977 27.865 13.1319C28.01 11.2559 26.2698 10.9673 25.6898 12.1217Z" />
      </svg>
    </symbol>
    <symbol id="vk" viewBox="0 0 48 48">
      <svg fill="currentColor">
        <path
          d="M45.763,35.202c-1.797-3.234-6.426-7.12-8.337-8.811c-0.523-0.463-0.579-1.264-0.103-1.776 c3.647-3.919,6.564-8.422,7.568-11.143C45.334,12.27,44.417,11,43.125,11l-3.753,0c-1.237,0-1.961,0.444-2.306,1.151 c-3.031,6.211-5.631,8.899-7.451,10.47c-1.019,0.88-2.608,0.151-2.608-1.188c0-2.58,0-5.915,0-8.28 c0-1.147-0.938-2.075-2.095-2.075L18.056,11c-0.863,0-1.356,0.977-0.838,1.662l1.132,1.625c0.426,0.563,0.656,1.248,0.656,1.951 L19,23.556c0,1.273-1.543,1.895-2.459,1.003c-3.099-3.018-5.788-9.181-6.756-12.128C9.505,11.578,8.706,11.002,7.8,11l-3.697-0.009 c-1.387,0-2.401,1.315-2.024,2.639c3.378,11.857,10.309,23.137,22.661,24.36c1.217,0.12,2.267-0.86,2.267-2.073l0-3.846 c0-1.103,0.865-2.051,1.977-2.079c0.039-0.001,0.078-0.001,0.117-0.001c3.267,0,6.926,4.755,8.206,6.979 c0.368,0.64,1.056,1.03,1.8,1.03l4.973,0C45.531,38,46.462,36.461,45.763,35.202z" />
      </svg>
    </symbol>
    <symbol id="tg" viewBox="0 0 30 30">
      <svg fill="currentColor">
        <path
          d="M 25.154297 3.984375 C 24.829241 3.998716 24.526384 4.0933979 24.259766 4.2011719 C 24.010014 4.3016357 23.055766 4.7109106 21.552734 5.3554688 C 20.048394 6.0005882 18.056479 6.855779 15.931641 7.7695312 C 11.681964 9.5970359 6.9042108 11.654169 4.4570312 12.707031 C 4.3650097 12.746607 4.0439208 12.849183 3.703125 13.115234 C 3.3623292 13.381286 3 13.932585 3 14.546875 C 3 15.042215 3.2360676 15.534319 3.5332031 15.828125 C 3.8303386 16.121931 4.144747 16.267067 4.4140625 16.376953 C 5.3912284 16.775666 8.4218473 18.015862 8.9941406 18.25 C 9.195546 18.866983 10.29249 22.222526 10.546875 23.044922 C 10.714568 23.587626 10.874198 23.927519 11.082031 24.197266 C 11.185948 24.332139 11.306743 24.45034 11.453125 24.542969 C 11.511635 24.579989 11.575789 24.608506 11.640625 24.634766 L 11.644531 24.636719 C 11.659471 24.642719 11.67235 24.652903 11.6875 24.658203 C 11.716082 24.668202 11.735202 24.669403 11.773438 24.677734 C 11.925762 24.726927 12.079549 24.757812 12.216797 24.757812 C 12.80196 24.757814 13.160156 24.435547 13.160156 24.435547 L 13.181641 24.419922 L 16.191406 21.816406 L 19.841797 25.269531 C 19.893193 25.342209 20.372542 26 21.429688 26 C 22.057386 26 22.555319 25.685026 22.875 25.349609 C 23.194681 25.014192 23.393848 24.661807 23.478516 24.21875 L 23.478516 24.216797 C 23.557706 23.798129 26.921875 6.5273437 26.921875 6.5273438 L 26.916016 6.5507812 C 27.014496 6.1012683 27.040303 5.6826405 26.931641 5.2695312 C 26.822973 4.8564222 26.536648 4.4608905 26.181641 4.2480469 C 25.826669 4.0352506 25.479353 3.9700339 25.154297 3.984375 z M 24.966797 6.0742188 C 24.961997 6.1034038 24.970391 6.0887279 24.962891 6.1230469 L 24.960938 6.1347656 L 24.958984 6.1464844 C 24.958984 6.1464844 21.636486 23.196371 21.513672 23.845703 C 21.522658 23.796665 21.481573 23.894167 21.439453 23.953125 C 21.379901 23.91208 21.257812 23.859375 21.257812 23.859375 L 21.238281 23.837891 L 16.251953 19.121094 L 12.726562 22.167969 L 13.775391 17.96875 C 13.775391 17.96875 20.331562 11.182109 20.726562 10.787109 C 21.044563 10.471109 21.111328 10.360953 21.111328 10.251953 C 21.111328 10.105953 21.035234 10 20.865234 10 C 20.712234 10 20.506484 10.14875 20.396484 10.21875 C 18.963383 11.132295 12.671823 14.799141 9.8515625 16.439453 C 9.4033769 16.256034 6.2896636 14.981472 5.234375 14.550781 C 5.242365 14.547281 5.2397349 14.548522 5.2480469 14.544922 C 7.6958673 13.491784 12.47163 11.434667 16.720703 9.6074219 C 18.84524 8.6937992 20.838669 7.8379587 22.341797 7.1933594 C 23.821781 6.5586849 24.850125 6.1218894 24.966797 6.0742188 z" />
      </svg>
    </symbol>
    <symbol id="inst" viewBox="0 0 24 24">
      <svg fill="currentColor">
        <path
          d="M 8 3 C 5.243 3 3 5.243 3 8 L 3 16 C 3 18.757 5.243 21 8 21 L 16 21 C 18.757 21 21 18.757 21 16 L 21 8 C 21 5.243 18.757 3 16 3 L 8 3 z M 8 5 L 16 5 C 17.654 5 19 6.346 19 8 L 19 16 C 19 17.654 17.654 19 16 19 L 8 19 C 6.346 19 5 17.654 5 16 L 5 8 C 5 6.346 6.346 5 8 5 z M 17 6 A 1 1 0 0 0 16 7 A 1 1 0 0 0 17 8 A 1 1 0 0 0 18 7 A 1 1 0 0 0 17 6 z M 12 7 C 9.243 7 7 9.243 7 12 C 7 14.757 9.243 17 12 17 C 14.757 17 17 14.757 17 12 C 17 9.243 14.757 7 12 7 z M 12 9 C 13.654 9 15 10.346 15 12 C 15 13.654 13.654 15 12 15 C 10.346 15 9 13.654 9 12 C 9 10.346 10.346 9 12 9 z" />
      </svg>
    </symbol>
    <symbol id="dzen" viewBox="0 0 50 50">
      <svg fill="currentColor">
        <path
          d="M46.894 23.986c.004 0 .007 0 .011 0 .279 0 .545-.117.734-.322.192-.208.287-.487.262-.769C46.897 11.852 38.154 3.106 27.11 2.1c-.28-.022-.562.069-.77.262-.208.192-.324.463-.321.746C26.193 17.784 28.129 23.781 46.894 23.986zM46.894 26.014c-18.765.205-20.7 6.202-20.874 20.878-.003.283.113.554.321.746.186.171.429.266.679.266.03 0 .061-.001.091-.004 11.044-1.006 19.787-9.751 20.79-20.795.025-.282-.069-.561-.262-.769C47.446 26.128 47.177 26.025 46.894 26.014zM22.823 2.105C11.814 3.14 3.099 11.884 2.1 22.897c-.025.282.069.561.262.769.189.205.456.321.734.321.004 0 .008 0 .012 0 18.703-.215 20.634-6.209 20.81-20.875.003-.283-.114-.555-.322-.747C23.386 2.173 23.105 2.079 22.823 2.105zM3.107 26.013c-.311-.035-.555.113-.746.321-.192.208-.287.487-.262.769.999 11.013 9.715 19.757 20.724 20.792.031.003.063.004.094.004.25 0 .492-.094.678-.265.208-.192.325-.464.322-.747C23.741 32.222 21.811 26.228 3.107 26.013z" />
      </svg>
    </symbol>
    <symbol id="slider-arrow" viewBox="0 0 492.004 492.004">
      <svg fill="currentColor">
        <g>
          <g>
            <path
              d="M382.678,226.804L163.73,7.86C158.666,2.792,151.906,0,144.698,0s-13.968,2.792-19.032,7.86l-16.124,16.12 c-10.492,10.504-10.492,27.576,0,38.064L293.398,245.9l-184.06,184.06c-5.064,5.068-7.86,11.824-7.86,19.028 c0,7.212,2.796,13.968,7.86,19.04l16.124,16.116c5.068,5.068,11.824,7.86,19.032,7.86s13.968-2.792,19.032-7.86L382.678,265 c5.076-5.084,7.864-11.872,7.848-19.088C390.542,238.668,387.754,231.884,382.678,226.804z" />
          </g>
        </g>
        <g />
        <g />
        <g />
        <g />
        <g />
        <g />
        <g />
        <g />
        <g />
        <g />
        <g />
        <g />
        <g />
        <g />
        <g />
      </svg>
    </symbol>
    <symbol id="treug" viewBox="0 0 360 360">
      <svg fill="currentColor">
        <path d="M0 180c0 360 0 180 1.8 180 3 0 360-360 358-360 0-16-10-17-180-1.7H-.2v180z" />
      </svg>
    </symbol>
    <symbol id="height" viewBox="0 0 24 24">
      <svg enable-background="new 0 0 24 24" fill="currentColor">
        <g>
          <rect fill="none" height="24" width="24" />
        </g>
        <g>
          <g />
          <polygon
            points="13,6.99 16,6.99 12,3 8,6.99 11,6.99 11,17.01 8,17.01 12,21 16,17.01 13,17.01" />
        </g>
      </svg>
    </symbol>
    <symbol id="info">
      <svg viewBox="0 96 960 960">
        <path
          d="M483.175 776q12.825 0 21.325-8.625T513 746V566q0-12.75-8.675-21.375-8.676-8.625-21.5-8.625-12.825 0-21.325 8.625T453 566v180q0 12.75 8.675 21.375 8.676 8.625 21.5 8.625Zm-3.193-314q14.018 0 23.518-9.2T513 430q0-14.45-9.482-24.225-9.483-9.775-23.5-9.775-14.018 0-23.518 9.775T447 430q0 13.6 9.482 22.8 9.483 9.2 23.5 9.2Zm.284 514q-82.734 0-155.5-31.5t-127.266-86q-54.5-54.5-86-127.341Q80 658.319 80 575.5q0-82.819 31.5-155.659Q143 347 197.5 293t127.341-85.5Q397.681 176 480.5 176q82.819 0 155.659 31.5Q709 239 763 293t85.5 127Q880 493 880 575.734q0 82.734-31.5 155.5T763 858.316q-54 54.316-127 86Q563 976 480.266 976Zm.234-60Q622 916 721 816.5t99-241Q820 434 721.188 335 622.375 236 480 236q-141 0-240.5 98.812Q140 433.625 140 576q0 141 99.5 240.5t241 99.5Zm-.5-340Z" />
      </svg>
    </symbol>
    <symbol id="exclamation-mark" viewBox="0 96 960 960">
      <svg>
        <path
          d="M479.911 936Q451 936 430.5 915.411q-20.5-20.588-20.5-49.5Q410 837 430.589 816.5q20.588-20.5 49.5-20.5Q509 796 529.5 816.589q20.5 20.588 20.5 49.5Q550 895 529.411 915.5q-20.588 20.5-49.5 20.5ZM410 696V216h140v480H410Z" />
      </svg>
    </symbol>
    <symbol id="options" viewBox="0 96 960 960">
      <svg>
        <path
          d="m388 976-20-126q-19-7-40-19t-37-25l-118 54-93-164 108-79q-2-9-2.5-20.5T185 576q0-9 .5-20.5T188 535L80 456l93-164 118 54q16-13 37-25t40-18l20-127h184l20 126q19 7 40.5 18.5T669 346l118-54 93 164-108 77q2 10 2.5 21.5t.5 21.5q0 10-.5 21t-2.5 21l108 78-93 164-118-54q-16 13-36.5 25.5T592 850l-20 126H388Zm92-270q54 0 92-38t38-92q0-54-38-92t-92-38q-54 0-92 38t-38 92q0 54 38 92t92 38Zm0-60q-29 0-49.5-20.5T410 576q0-29 20.5-49.5T480 506q29 0 49.5 20.5T550 576q0 29-20.5 49.5T480 646Zm0-70Zm-44 340h88l14-112q33-8 62.5-25t53.5-41l106 46 40-72-94-69q4-17 6.5-33.5T715 576q0-17-2-33.5t-7-33.5l94-69-40-72-106 46q-23-26-52-43.5T538 348l-14-112h-88l-14 112q-34 7-63.5 24T306 414l-106-46-40 72 94 69q-4 17-6.5 33.5T245 576q0 17 2.5 33.5T254 643l-94 69 40 72 106-46q24 24 53.5 41t62.5 25l14 112Z" />
      </svg>
    </symbol>
    <symbol id="size" viewBox="0 96 960 960">
      <svg>
        <path
          d="M180 936q-24 0-42-18t-18-42V704h60v172h172v60H180Zm428 0v-60h172V704h60v172q0 24-18 42t-42 18H608ZM120 448V276q0-24 18-42t42-18h172v60H180v172h-60Zm660 0V276H608v-60h172q24 0 42 18t18 42v172h-60Z" />
      </svg>
    </symbol>
    <symbol id="repair" viewBox="0 96 960 960">
      <svg>
        <path
          d="M705 928 447 668q-23 8-46 13t-47 5q-97.083 0-165.042-67.667Q121 550.667 121 454q0-31 8.158-60.388Q137.316 364.223 152 338l145 145 92-86-149-149q25.915-15.158 54.957-23.579Q324 216 354 216q99.167 0 168.583 69.417Q592 354.833 592 454q0 24-5 47t-13 46l259 258q11 10.957 11 26.478Q844 847 833 858l-76 70q-10.696 11-25.848 11T705 928Zm28-57 40-40-273-273q16-21 24-49.5t8-54.5q0-75-55.5-127T350 274l101 103q9 9 9 22t-9 22L319 545q-9 9-22 9t-22-9l-97-96q3 77 54.668 127T354 626q25 0 53-8t49-24l277 277ZM476 572Z" />
      </svg>
    </symbol>
    <symbol id="message" viewBox="0 96 960 960">
      <svg>
        <path
          d="M240 657h313v-60H240v60Zm0-130h480v-60H240v60Zm0-130h480v-60H240v60ZM80 976V236q0-23 18-41.5t42-18.5h680q23 0 41.5 18.5T880 236v520q0 23-18.5 41.5T820 816H240L80 976Zm60-145 75-75h605V236H140v595Zm0-595v595-595Z" />
      </svg>
    </symbol>
    <symbol id="truck" viewBox="0 96 960 960">
      <svg>
        <path
          d="M224.118 895Q175 895 140.5 860.583 106 826.167 106 777H40V316q0-24 18-42t42-18h579v167h105l136 181v173h-71q0 49.167-34.382 83.583Q780.235 895 731.118 895 682 895 647.5 860.583 613 826.167 613 777H342q0 49-34.382 83.5-34.383 34.5-83.5 34.5ZM224 835q24 0 41-17t17-41q0-24-17-41t-41-17q-24 0-41 17t-17 41q0 24 17 41t41 17ZM100 717h22q17-27 43.041-43 26.041-16 58-16t58.459 16.5Q308 691 325 717h294V316H100v401Zm631 118q24 0 41-17t17-41q0-24-17-41t-41-17q-24 0-41 17t-17 41q0 24 17 41t41 17Zm-52-204h186L754 483h-75v148ZM360 527Z" />
      </svg>
    </symbol>
    <symbol id="warehouse" viewBox="0 96 960 960">
      <svg>
        <path
          d="M140 876h120V556h440v320h120V416L480 280 140 416v460Zm-60 60V376l400-160 400 160v560H640V616H320v320H80Zm290 0v-60h60v60h-60Zm80-120v-60h60v60h-60Zm80 120v-60h60v60h-60ZM260 556h440-440Z" />
      </svg>
    </symbol>
    <symbol id="structure" viewBox="0 96 960 960">
      <svg>
        <path
          d="M604 936V811H450V401h-93v130H80V216h277v125h247V216h276v315H604V401h-94v350h94V621h276v315H604ZM140 276v195-195Zm524 405v195-195Zm0-405v195-195Zm0 195h156V276H664v195Zm0 405h156V681H664v195ZM140 471h157V276H140v195Z" />
      </svg>
    </symbol>
    <symbol id="medal" viewBox="0 96 960 960">
      <svg>
        <path
          d="m385 644 36-115-95-74h116l38-119 37 119h117l-95 74 35 115-94-71-95 71Zm-141 372V712q-45-47-64.5-103T160 496q0-136 92-228t228-92q136 0 228 92t92 228q0 57-19.5 113T716 712v304l-236-79-236 79Zm236-260q109 0 184.5-75.5T740 496q0-109-75.5-184.5T480 236q-109 0-184.5 75.5T220 496q0 109 75.5 184.5T480 756ZM304 932l176-55 176 55V761q-40 29-86 42t-90 13q-44 0-90-13t-86-42v171Zm176-86Z" />
      </svg>
    </symbol>
    <symbol id="people" viewBox="0 96 960 960">
      <svg>
        <path
          d="M0 816v-53q0-38.567 41.5-62.784Q83 676 150.376 676q12.165 0 23.395.5Q185 677 196 678.652q-8 17.348-12 35.165T180 751v65H0Zm240 0v-65q0-32 17.5-58.5T307 646q32-20 76.5-30t96.5-10q53 0 97.5 10t76.5 30q32 20 49 46.5t17 58.5v65H240Zm540 0v-65q0-19.861-3.5-37.431Q773 696 765 678.727q11-1.727 22.171-2.227 11.172-.5 22.829-.5 67.5 0 108.75 23.768T960 763v53H780Zm-480-60h360v-6q0-37-50.5-60.5T480 666q-79 0-129.5 23.5T300 751v5ZM149.567 646Q121 646 100.5 625.438 80 604.875 80 576q0-29 20.562-49.5Q121.125 506 150 506q29 0 49.5 20.5t20.5 49.933Q220 605 199.5 625.5T149.567 646Zm660 0Q781 646 760.5 625.438 740 604.875 740 576q0-29 20.562-49.5Q781.125 506 810 506q29 0 49.5 20.5t20.5 49.933Q880 605 859.5 625.5T809.567 646ZM480 576q-50 0-85-35t-35-85q0-51 35-85.5t85-34.5q51 0 85.5 34.5T600 456q0 50-34.5 85T480 576Zm.351-60Q506 516 523 498.649t17-43Q540 430 522.851 413t-42.5-17Q455 396 437.5 413.149t-17.5 42.5Q420 481 437.351 498.5t43 17.5ZM480 756Zm0-300Z" />
      </svg>
    </symbol>
    <symbol id="repair_done" viewBox="0 96 960 960">
      <svg>
        <path
          d="M768 936 517 685l57-57 251 251-57 57Zm-581 0-57-57 290-290-107-107-23 23-44-44v85l-24 24-122-122 24-24h86l-48-48 131-131q17-17 37-23t44-6q24 0 44 8.5t37 25.5L348 357l48 48-24 24 104 104 122-122q-8-13-12.5-30t-4.5-36q0-53 38.5-91.5T711 215q15 0 25.5 3t17.5 8l-85 85 75 75 85-85q5 8 8.5 19.5T841 347q0 53-38.5 91.5T711 477q-18 0-31-2.5t-24-7.5L187 936Z" />
      </svg>
    </symbol>
    <symbol id="arrow">
      <svg fill="currentColor" viewBox="0 -960 960 960">
        <path d="m283-345-43-43 240-240 240 239-43 43-197-197-197 198Z" />
      </svg>
    </symbol>
    <symbol id="book">
      <svg viewBox="0 -960 960 960">
        <path
          d="M260-320q47 0 91.5 10.5T440-278v-394q-41-24-87-36t-93-12q-36 0-71.5 7T120-692v396q35-12 69.5-18t70.5-6Zm260 42q44-21 88.5-31.5T700-320q36 0 70.5 6t69.5 18v-396q-33-14-68.5-21t-71.5-7q-47 0-93 12t-87 36v394Zm-40 118q-48-38-104-59t-116-21q-42 0-82.5 11T100-198q-21 11-40.5-1T40-234v-482q0-11 5.5-21T62-752q46-24 96-36t102-12q58 0 113.5 15T480-740q51-30 106.5-45T700-800q52 0 102 12t96 36q11 5 16.5 15t5.5 21v482q0 23-19.5 35t-40.5 1q-37-20-77.5-31T700-240q-60 0-116 21t-104 59ZM280-494Z" />
      </svg>
    </symbol>
    <symbol id="warning">
      <svg viewBox="0 -960 960 960">
        <path
          d="M480-280q17 0 28.5-11.5T520-320q0-17-11.5-28.5T480-360q-17 0-28.5 11.5T440-320q0 17 11.5 28.5T480-280Zm-40-160h80v-240h-80v240ZM330-120 120-330v-300l210-210h300l210 210v300L630-120H330Zm34-80h232l164-164v-232L596-760H364L200-596v232l164 164Zm116-280Z" />
      </svg>
    </symbol>
  </defs>
</svg>